# xmcd CD database file
#
# Track frame offsets:
#	150
#	22110
#	46297
#
# Disc length: 909 seconds
#
# Revision: 4
# Processed by: cddbd v1.5.1PL2 Copyright (c) Steve Scherf et al.
# Submitted via: CDex 1.50beta8a
#
DISCID=1f038b03
DTITLE=槇原敬之 - No.1
DYEAR=1993
DGENRE=Pop
TTITLE0=No.1
TTITLE1=髪を切る日
TTITLE2=No.1（カラオケ）
EXTD=YEAR: 1993
EXTT0=
EXTT1=
EXTT2=
PLAYORDER=
